PathFileType	4	(X/Y/Z)	c:/Users/goper/Files/vsCode/490R/osim_files/C15/C15_Static01.trc
DataRate	CameraRate	NumFrames	NumMarkers	Units                	OrigDataRate	OrigDataStartFrame	OrigNumFrames
250.00	250.00	8	36	mm	250.0	1859	3717
                Frame#	Time	LPSIS			LASIS			LTH1			LTH2			LTH3			LTH4			LLFE			LMFE			LSH1			LSH2			LSH3			LSH4			LLMAL			LMMAL			LCAL			LMTP5			LTOE			LMTP1			RPSIS			RASIS			RTH1			RTH2			RTH3			RTH4			RLFE			RMFE			RSH1			RSH2			RSH3			RSH4			RLMAL			RMMAL			RCAL			RMTP1			RTOE			RMTP5		
		X1	Y1	Z1	X2	Y2	Z2	X3	Y3	Z3	X4	Y4	Z4	X5	Y5	Z5	X6	Y6	Z6	X7	Y7	Z7	X8	Y8	Z8	X9	Y9	Z9	X10	Y10	Z10	X11	Y11	Z11	X12	Y12	Z12	X13	Y13	Z13	X14	Y14	Z14	X15	Y15	Z15	X16	Y16	Z16	X17	Y17	Z17	X18	Y18	Z18	X19	Y19	Z19	X20	Y20	Z20	X21	Y21	Z21	X22	Y22	Z22	X23	Y23	Z23	X24	Y24	Z24	X25	Y25	Z25	X26	Y26	Z26	X27	Y27	Z27	X28	Y28	Z28	X29	Y29	Z29	X30	Y30	Z30	X31	Y31	Z31	X32	Y32	Z32	X33	Y33	Z33	X34	Y34	Z34	X35	Y35	Z35	X36	Y36	Z36

1859	7.43200	-381.68762	1025.32214	440.57651	-220.67897	1003.23834	361.27658	-292.18964	625.45697	280.30771	-298.60904	579.62170	290.50671	-240.90654	626.86865	290.59177	-246.08275	581.55603	296.23532	-307.67117	500.20361	308.39923	-289.51001	475.44531	425.45297	-382.39688	396.74783	298.54953	-386.16608	353.51645	289.29150	-321.47849	389.52869	287.18414	-333.35565	346.54868	279.57465	-372.49744	88.63216	323.05823	-341.10083	104.05211	409.55832	-426.70609	58.22265	376.21967	-259.67709	36.36727	276.17862	-192.62392	57.33892	328.22226	-217.86623	38.45159	389.13278	-370.16946	1025.78247	558.66095	-210.54433	1006.06879	612.12439	-295.77185	646.29181	685.29871	-295.87378	599.98438	680.02814	-235.37320	640.31738	679.67896	-244.50484	593.31390	679.26770	-289.77707	497.67603	659.54144	-298.18918	472.73373	541.88245	-384.31168	400.30634	676.23199	-387.16061	356.85022	682.77014	-323.26086	388.71146	684.34149	-335.32239	348.85583	691.67529	-377.57800	87.32408	645.06342	-337.57629	102.28513	561.27386	-432.24951	58.35419	590.56659	-225.90489	37.96025	586.46173	-201.03807	54.61185	645.12701	-272.03394	30.83570	698.78400
1860	7.43600	-381.67160	1025.29309	440.58060	-220.62599	1003.22449	361.27625	-292.14682	625.42963	280.30661	-298.61353	579.58667	290.53149	-240.87447	626.85156	290.58600	-246.03999	581.56689	296.21796	-307.66464	500.16757	308.39883	-289.49823	475.45786	425.45288	-382.38895	396.68524	298.54562	-386.12814	353.49814	289.29016	-321.48331	389.51160	287.18448	-333.34781	346.53787	279.57346	-372.47748	88.60496	323.05948	-341.11572	104.03191	409.55252	-426.69986	58.22833	376.25473	-259.69205	36.35461	276.19559	-192.62514	57.32708	328.21341	-217.86911	38.45152	389.14014	-370.13321	1025.76550	558.63434	-210.55656	1006.02521	612.12408	-295.78586	646.29248	685.31976	-295.91623	599.98907	680.02637	-235.38609	640.31763	679.69446	-244.50774	593.29761	679.27179	-289.72595	497.71008	659.59186	-298.15540	472.70856	541.85852	-384.33109	400.30490	676.20483	-387.16577	356.86548	682.76794	-323.28131	388.67752	684.34088	-335.32458	348.84082	691.67987	-377.60114	87.30708	645.05298	-337.59290	102.27409	561.26990	-432.25528	58.34267	590.56293	-225.94272	37.92526	586.46442	-201.02794	54.62396	645.13812	-272.03452	30.83293	698.79559
1861	7.44000	-381.63947	1025.29272	440.55951	-220.60515	1003.23334	361.27014	-292.13635	625.41327	280.29898	-298.49115	579.66034	290.43741	-240.85686	626.85895	290.57715	-246.04933	581.54248	296.22180	-307.68033	500.14380	308.39520	-289.46024	475.48230	425.46295	-382.37347	396.71124	298.53503	-386.14917	353.47510	289.29602	-321.45929	389.53967	287.18280	-333.35651	346.53531	279.56305	-372.48251	88.60286	323.06140	-341.12732	104.01814	409.54169	-426.72519	58.23754	376.23901	-259.69696	36.35319	276.19171	-192.62932	57.31263	328.22037	-217.83562	38.47901	389.14441	-370.12350	1025.74121	558.63440	-210.55696	1006.02899	612.12115	-295.78473	646.27710	685.32019	-295.88809	599.98444	680.01074	-235.36154	640.31580	679.69556	-244.47922	593.31494	679.26221	-289.72928	497.71780	659.55865	-298.18344	472.67380	541.86768	-384.33194	400.28394	676.18646	-387.16483	356.87619	682.76257	-323.28101	388.67673	684.31256	-335.27927	348.86154	691.67291	-377.61249	87.28981	645.04523	-337.72910	102.17004	561.31012	-432.23157	58.33398	590.56934	-225.91449	37.92584	586.46558	-201.02127	54.62950	645.12952	-272.03680	30.81750	698.78986
1862	7.44400	-381.63016	1025.27185	440.52505	-220.56828	1003.23114	361.27255	-292.13327	625.38782	280.29294	-298.39499	579.70312	290.37299	-240.83470	626.84521	290.57678	-245.98453	581.53436	296.23630	-307.66650	500.13889	308.39761	-289.42691	475.47632	425.45541	-382.38242	396.70889	298.53705	-386.15317	353.47116	289.29419	-321.45328	389.52243	287.17523	-333.34808	346.52600	279.56973	-372.48639	88.58394	323.05084	-341.13028	103.99429	409.54050	-426.75418	58.26106	376.19211	-259.73038	36.33532	276.19000	-192.63242	57.30505	328.22827	-217.83992	38.44928	389.14737	-370.10245	1025.72705	558.62598	-210.54398	1006.00012	612.11237	-295.74353	646.24146	685.32855	-295.89526	599.94995	680.01257	-235.34268	640.29321	679.69226	-244.48843	593.29437	679.26349	-289.68668	497.70352	659.59570	-298.18613	472.65518	541.85547	-384.34082	400.27374	676.19513	-387.12683	356.87125	682.77490	-323.28607	388.65570	684.32660	-335.28946	348.83902	691.65387	-377.59247	87.26936	645.03021	-337.72891	102.15465	561.31885	-432.23383	58.29132	590.55286	-225.90430	37.92068	586.48175	-201.00142	54.61427	645.12177	-272.03311	30.78594	698.79626
1863	7.44800	-381.59103	1025.26086	440.48120	-220.54268	1003.23749	361.27032	-292.10028	625.39050	280.28552	-298.53888	579.66821	290.44958	-240.77325	626.86267	290.56702	-245.97928	581.54663	296.22739	-307.66702	500.13586	308.39844	-289.41125	475.47647	425.42905	-382.41150	396.72363	298.53494	-386.16437	353.49426	289.28015	-321.42627	389.54108	287.16196	-333.34448	346.51352	279.56091	-372.49103	88.60651	323.04172	-341.11371	103.97536	409.53555	-426.76764	58.26442	376.13702	-259.73245	36.33114	276.18570	-192.61417	57.30717	328.25241	-217.84404	38.45379	389.17850	-370.09641	1025.72180	558.58435	-210.50723	1005.99744	612.12500	-295.73410	646.20575	685.31146	-295.85837	599.92236	679.99811	-235.33859	640.28857	679.69049	-244.45099	593.28314	679.27106	-289.67981	497.67761	659.56195	-298.16696	472.64087	541.85620	-384.28061	400.26013	676.17065	-387.08224	356.84735	682.77698	-323.27643	388.63278	684.32166	-335.27521	348.83707	691.66516	-377.60544	87.23363	645.02301	-337.74503	102.13462	561.30969	-432.19772	58.24622	590.55176	-225.91644	37.92795	586.49237	-201.01691	54.60973	645.14673	-272.02203	30.73835	698.76031
1864	7.45200	-381.61121	1025.26160	440.44135	-220.47453	1003.22778	361.27295	-292.07968	625.41626	280.27655	-298.46835	579.70923	290.42923	-240.74068	626.85376	290.56711	-245.93327	581.55835	296.22311	-307.65674	500.14240	308.39520	-289.40204	475.45926	425.40274	-382.42526	396.74228	298.52634	-386.17737	353.50104	289.28091	-321.40576	389.55157	287.16278	-333.32452	346.52597	279.55374	-372.56665	88.59354	323.00385	-341.12036	103.95890	409.54337	-426.78189	58.30106	376.12982	-259.46210	36.61560	276.14023	-192.61563	57.29567	328.26260	-217.85786	38.42322	389.20456	-370.07788	1025.71313	558.55658	-210.50313	1005.98065	612.12836	-295.72977	646.18512	685.30383	-295.82306	599.88055	679.99359	-235.33794	640.27435	679.71497	-244.46312	593.26776	679.28467	-289.67569	497.62396	659.56140	-298.17590	472.64819	541.85345	-384.28745	400.22675	676.16052	-387.07468	356.83865	682.78729	-323.29709	388.58868	684.34998	-335.27737	348.83887	691.65631	-377.58426	87.21451	645.01898	-337.61801	102.23602	561.25885	-432.22366	58.23190	590.56061	-225.93170	37.89726	586.53528	-201.03984	54.60017	645.16278	-272.04010	30.71383	698.74951
1865	7.45600	-381.59314	1025.28857	440.39960	-220.45709	1003.22058	361.28351	-292.07291	625.41846	280.26050	-298.47870	579.75104	290.47052	-240.71677	626.86066	290.57333	-245.92107	581.56647	296.24033	-307.64612	500.16296	308.38205	-289.38080	475.43979	425.39633	-382.45383	396.78784	298.52795	-386.17636	353.54431	289.26703	-321.40152	389.54575	287.15894	-333.32889	346.53189	279.56415	-372.57175	88.62128	322.99149	-341.12720	103.95898	409.55292	-426.83252	58.35827	376.11484	-259.45343	36.61787	276.14066	-192.61855	57.30989	328.28165	-217.87094	38.42691	389.22574	-370.09613	1025.71960	558.53412	-210.47733	1005.98938	612.15271	-295.72098	646.14783	685.29291	-295.80612	599.87085	679.98694	-235.33914	640.26080	679.72864	-244.46889	593.25934	679.30371	-289.65845	497.59985	659.53723	-298.15970	472.66995	541.84601	-384.28317	400.24103	676.16412	-387.03476	356.82040	682.77917	-323.30127	388.58270	684.35815	-335.28375	348.82550	691.65820	-377.61050	87.17751	645.01404	-337.72992	102.13960	561.30676	-432.24194	58.26347	590.54413	-225.91484	37.89673	586.56030	-201.03824	54.59299	645.18243	-272.03979	30.69232	698.74512
1866	7.46000	-381.55896	1025.27527	440.37692	-220.40721	1003.23145	361.28577	-291.99249	625.43280	280.25253	-298.37552	579.78894	290.39389	-240.67863	626.87054	290.57990	-245.89162	581.52380	296.23697	-307.62100	500.17059	308.38336	-289.34497	475.42755	425.38153	-382.38452	396.80322	298.50140	-386.16541	353.54666	289.26807	-321.38159	389.54886	287.17007	-333.29279	346.53934	279.55881	-372.51306	88.63065	323.03516	-341.12286	103.94461	409.54657	-426.80695	58.35289	376.10150	-259.70465	36.33157	276.20325	-192.61765	57.30704	328.28671	-217.86877	38.43460	389.22888	-370.09061	1025.71790	558.51233	-210.47403	1005.98962	612.15045	-295.70551	646.13116	685.28687	-295.81525	599.86237	679.97510	-235.30777	640.27228	679.73328	-244.41405	593.26031	679.30286	-289.63889	497.60559	659.56946	-298.14175	472.68149	541.85168	-384.27325	400.24350	676.14026	-387.04199	356.83685	682.77771	-323.27774	388.59335	684.35883	-335.23737	348.85028	691.65753	-377.59949	87.16669	645.01135	-337.61615	102.24377	561.27417	-432.23004	58.24511	590.54919	-225.93512	37.89715	586.56256	-201.03215	54.60894	645.18890	-272.05167	30.68587	698.73053
